{"glyphs":{":":{"x_min":0,"x_max":247,"ha":247,"o":"m 51 0 l 51 145 l 196 145 l 196 0 z m 51 392 l 51 536 l 196 536 l 196 392 z"},"$":{"x_min":0,"x_max":639,"ha":639,"o":"m 286 -78 l 286 2 q 205 2 88 38 l 88 145 q 197 95 286 90 l 286 322 l 261 339 q 183 392 157 421 q 132 450 121 479 q 109 509 109 543 q 109 607 153 659 q 197 711 286 722 l 286 801 l 365 801 l 365 722 q 441 718 520 691 l 520 593 q 440 631 365 638 l 365 419 l 387 404 q 488 339 516 298 q 544 256 544 201 q 544 131 500 74 q 455 16 365 1 l 365 -78 z m 350 96 q 384 107 402 131 q 419 154 419 182 q 419 205 407 227 q 396 248 350 281 z m 300 461 l 300 633 q 234 611 234 554 q 234 528 247 507 q 261 486 300 461 z"},"?":{"x_min":0,"x_max":497,"ha":497,"o":"m 136 0 l 136 121 l 281 121 l 281 0 z m 281 205 l 136 205 l 136 218 q 136 258 149 292 q 163 326 208 377 l 243 415 q 313 493 313 553 q 313 596 283 620 q 253 645 198 645 q 125 645 30 601 l 30 711 q 74 725 101 730 q 128 735 160 738 q 191 741 220 741 q 336 741 403 696 q 470 651 470 575 q 470 551 463 528 q 455 504 441 484 q 427 464 390 429 l 357 397 q 316 359 299 329 q 281 300 281 246 z"},"<":{"x_min":0,"x_max":639,"ha":639,"o":"m 584 24 l 54 288 l 584 554 l 584 452 l 256 288 l 584 126 z"},"'":{"x_min":0,"x_max":247,"ha":247,"o":"m 79 470 l 48 771 l 205 771 l 169 470 z"},"=":{"x_min":0,"x_max":639,"ha":639,"o":"m 54 142 l 54 232 l 584 232 l 584 142 z m 54 340 l 54 431 l 584 431 l 584 340 z"},"a":{"x_min":0,"x_max":588,"ha":588,"o":"m 353 58 q 322 27 299 14 q 276 1 251 -6 q 226 -12 198 -12 q 126 -12 83 32 q 40 77 40 142 q 40 221 105 274 q 169 327 314 327 l 353 327 l 353 376 q 353 425 326 442 q 298 459 256 459 q 173 459 87 412 l 87 511 q 185 548 282 548 q 342 548 389 532 q 436 516 464 482 q 492 448 492 381 l 492 144 q 492 100 505 90 q 519 81 532 81 q 540 81 551 83 l 555 1 q 509 -12 473 -12 q 433 -12 404 1 q 375 15 359 58 z m 353 135 l 353 244 l 319 244 q 248 244 213 219 q 179 194 179 156 q 179 125 200 106 q 221 86 249 86 q 274 86 301 98 q 327 111 353 135 z"},"L":{"x_min":0,"x_max":582,"ha":582,"o":"m 90 0 l 90 723 l 241 723 l 241 103 l 566 103 l 566 0 z"},"3":{"x_min":0,"x_max":639,"ha":639,"o":"m 88 5 l 88 114 q 195 72 266 72 q 329 72 369 105 q 409 138 409 194 q 409 234 388 267 q 367 300 326 319 q 286 337 199 337 l 155 337 l 155 423 l 192 424 q 275 424 312 439 q 348 454 368 485 q 389 516 389 552 q 389 596 359 623 q 330 650 267 650 q 188 650 98 610 l 98 708 q 143 724 170 729 q 196 734 232 738 q 268 741 299 741 q 413 741 475 694 q 537 647 537 568 q 537 504 497 459 q 457 414 377 388 q 447 372 484 343 q 521 314 540 276 q 560 237 560 192 q 560 110 495 46 q 430 -18 286 -18 q 248 -18 205 -16 q 162 -14 88 5 z"},";":{"x_min":0,"x_max":247,"ha":247,"o":"m 105 0 l 51 0 l 51 145 l 196 145 l 196 36 q 196 -28 182 -62 q 168 -97 134 -125 q 100 -152 51 -157 l 51 -103 q 81 -94 93 -69 q 105 -43 105 -15 z m 51 392 l 51 536 l 196 536 l 196 392 z"},"J":{"x_min":0,"x_max":418,"ha":418,"o":"m -33 -127 l -34 -20 q 24 -42 87 -42 q 113 -42 133 -33 q 153 -23 165 -1 q 177 21 177 90 l 177 723 l 328 723 l 328 106 q 328 4 305 -42 q 282 -88 231 -116 q 181 -145 97 -145 q 35 -145 -33 -127 z"},"V":{"x_min":0,"x_max":699,"ha":699,"o":"m 279 0 l 12 723 l 173 723 l 380 164 l 580 723 l 688 723 l 430 0 z"},"\"":{"x_min":0,"x_max":452,"ha":452,"o":"m 72 482 l 48 771 l 193 771 l 163 482 z m 289 482 l 265 771 l 410 771 l 380 482 z"},"7":{"x_min":0,"x_max":639,"ha":639,"o":"m 139 0 q 146 52 158 89 q 170 125 198 177 q 225 228 314 358 l 484 605 l 108 605 l 108 723 l 603 723 l 603 605 q 499 475 437 367 q 375 260 337 168 q 299 76 299 0 z"},"S":{"x_min":0,"x_max":571,"ha":571,"o":"m 50 6 l 50 130 q 133 95 175 88 q 216 82 250 82 q 313 82 344 110 q 375 138 375 178 q 375 208 358 232 q 341 256 274 294 l 226 321 q 122 379 85 429 q 48 478 48 543 q 48 625 110 683 q 172 741 288 741 q 374 741 482 716 l 482 600 q 372 642 307 642 q 253 642 225 618 q 197 594 197 561 q 197 536 214 514 q 230 492 297 454 l 349 425 q 468 358 500 309 q 533 259 533 197 q 533 108 466 45 q 398 -18 252 -18 q 165 -18 50 6 z"},"}":{"x_min":0,"x_max":355,"ha":355,"o":"m 322 265 l 298 265 q 281 265 263 258 q 246 251 239 235 q 231 219 231 201 q 231 168 240 132 l 251 87 q 262 44 262 3 q 262 -63 209 -104 q 157 -145 59 -145 l 59 -48 l 70 -48 q 89 -48 105 -32 q 122 -16 122 6 q 122 16 117 46 l 110 88 q 104 122 104 157 q 104 257 201 313 q 104 370 104 470 q 104 505 110 539 l 117 580 q 122 610 122 621 q 122 642 105 658 q 89 675 70 675 l 59 675 l 59 771 q 157 771 209 730 q 262 690 262 623 q 262 583 251 540 l 240 495 q 231 458 231 424 q 231 396 247 379 q 264 361 298 361 l 322 361 z"},"Z":{"x_min":0,"x_max":645,"ha":645,"o":"m 52 0 l 52 103 l 411 624 l 72 624 l 72 723 l 586 723 l 586 624 l 227 103 l 586 103 l 586 0 z"},"x":{"x_min":0,"x_max":591,"ha":591,"o":"m 33 0 l 217 269 l 41 536 l 206 536 l 321 366 l 431 536 l 548 536 l 380 273 l 561 0 l 396 0 l 276 177 l 153 0 z"},")":{"x_min":0,"x_max":355,"ha":355,"o":"m 45 -150 l 45 -57 q 90 -9 114 45 q 138 98 150 168 q 163 238 163 312 q 163 389 151 456 q 139 524 115 579 q 91 634 45 684 l 45 777 q 130 731 188 657 q 245 583 276 492 q 308 402 308 313 q 308 225 277 136 q 247 48 191 -26 q 136 -100 45 -150 z"},"&":{"x_min":0,"x_max":745,"ha":745,"o":"m 692 0 l 522 0 l 490 39 q 404 -18 303 -18 q 227 -18 165 10 q 104 39 68 95 q 33 150 33 213 q 33 278 71 336 q 109 394 213 437 q 162 528 162 585 q 162 625 188 664 q 215 702 260 721 q 306 741 360 741 q 440 741 494 698 q 548 654 548 588 q 548 535 510 492 q 473 449 389 410 q 414 363 453 304 q 493 245 535 193 q 567 239 576 287 q 584 335 584 391 l 584 403 l 706 403 q 706 243 591 120 q 639 58 692 0 z m 263 362 q 173 322 173 240 q 173 178 216 126 q 258 75 327 75 q 384 75 432 109 q 374 184 344 229 q 314 274 280 333 z m 343 477 q 428 522 428 585 q 428 613 410 632 q 393 650 363 650 q 332 650 315 631 q 299 612 299 587 q 299 545 343 477 z"},"_":{"x_min":0,"x_max":500,"ha":500,"o":"m 42 -78 l 42 0 l 458 0 l 458 -78 z"},"v":{"x_min":0,"x_max":593,"ha":593,"o":"m 223 0 l 18 536 l 170 536 l 320 149 l 469 536 l 574 536 l 367 0 z"},"O":{"x_min":0,"x_max":823,"ha":823,"o":"m 412 -18 q 299 -18 216 29 q 132 75 89 163 q 45 250 45 361 q 45 472 89 560 q 132 647 216 694 q 300 741 412 741 q 523 741 607 694 q 691 647 735 560 q 778 472 778 361 q 778 250 735 163 q 691 75 608 29 q 525 -18 412 -18 z m 412 82 q 517 82 568 167 q 619 252 619 362 q 619 472 567 557 q 516 642 412 642 q 308 642 256 557 q 205 472 205 362 q 205 252 256 167 q 307 82 412 82 z"},"(":{"x_min":0,"x_max":355,"ha":355,"o":"m 311 777 l 311 684 q 265 634 241 579 q 217 523 205 456 q 193 388 193 313 q 193 238 205 171 q 217 103 241 48 q 265 -7 311 -57 l 311 -150 q 251 -118 225 -94 q 200 -70 175 -40 q 113 38 81 131 q 48 224 48 313 q 48 429 100 542 q 136 624 191 686 q 213 709 236 729 q 259 748 311 777 z"},"C":{"x_min":0,"x_max":712,"ha":712,"o":"m 672 29 q 625 8 589 0 q 554 -8 510 -13 q 465 -18 421 -18 q 232 -18 139 89 q 45 196 45 361 q 45 528 138 634 q 231 741 431 741 q 548 741 665 713 l 665 595 q 609 615 573 624 q 538 633 506 637 q 474 642 442 642 q 317 642 261 562 q 205 481 205 363 q 205 239 269 163 q 333 86 458 86 q 563 86 672 140 z"},"W":{"x_min":0,"x_max":904,"ha":904,"o":"m 190 0 l 10 723 l 152 723 l 284 194 l 409 723 l 534 723 l 652 197 l 791 723 l 895 723 l 706 0 l 562 0 l 451 496 l 334 0 z"},"A":{"x_min":0,"x_max":736,"ha":736,"o":"m 11 0 l 292 723 l 443 723 l 724 0 l 570 0 l 495 193 l 196 193 l 121 0 z m 233 289 l 458 289 l 345 577 z"},"f":{"x_min":0,"x_max":415,"ha":415,"o":"m 105 0 l 105 446 l 32 446 l 32 536 l 105 536 l 105 575 q 105 687 157 735 q 208 783 303 783 q 367 783 435 765 l 435 667 q 374 693 325 693 q 302 693 285 684 q 269 675 260 654 q 250 632 250 580 l 250 536 l 386 536 l 386 446 l 250 446 l 250 0 z"},"Q":{"x_min":0,"x_max":824,"ha":824,"o":"m 776 -145 q 696 -124 646 -106 q 597 -89 555 -70 q 514 -50 459 -16 q 424 -18 407 -18 q 303 -18 218 28 q 133 74 89 162 q 45 250 45 361 q 45 472 89 560 q 132 647 216 694 q 300 741 412 741 q 523 741 608 694 q 692 647 735 559 q 778 471 778 360 q 778 243 730 154 q 682 65 585 17 q 658 -8 719 -23 q 780 -38 874 -48 z m 412 82 q 516 82 567 166 q 619 250 619 361 q 619 473 567 557 q 516 642 412 642 q 308 642 256 557 q 205 472 205 362 q 205 252 256 167 q 307 82 412 82 z"},"w":{"x_min":0,"x_max":863,"ha":863,"o":"m 185 0 l 36 536 l 170 536 l 276 161 l 388 536 l 513 536 l 614 159 l 728 536 l 829 536 l 669 0 l 531 0 l 433 368 l 324 0 z"},"-":{"x_min":0,"x_max":301,"ha":301,"o":"m 42 262 l 42 353 l 259 353 l 259 262 z"},"E":{"x_min":0,"x_max":601,"ha":601,"o":"m 90 0 l 90 723 l 542 723 l 542 624 l 241 624 l 241 422 l 488 422 l 488 322 l 241 322 l 241 103 l 565 103 l 565 0 z"},"s":{"x_min":0,"x_max":565,"ha":565,"o":"m 76 17 l 76 123 q 184 78 260 78 q 300 78 324 95 q 349 112 349 139 q 349 162 331 177 q 312 192 275 207 l 227 227 q 151 257 115 293 q 79 330 79 388 q 79 458 133 503 q 188 548 299 548 q 365 548 455 529 l 455 428 q 368 458 311 458 q 266 458 244 443 q 221 427 221 403 q 221 384 236 369 q 250 354 288 340 l 330 324 q 434 285 466 248 q 498 210 498 158 q 498 90 439 39 q 381 -12 270 -12 q 175 -12 76 17 z"},">":{"x_min":0,"x_max":639,"ha":639,"o":"m 54 554 l 584 290 l 54 24 l 54 127 l 382 290 l 54 453 z"},"l":{"x_min":0,"x_max":325,"ha":325,"o":"m 90 0 l 90 771 l 235 771 l 235 0 z"},"8":{"x_min":0,"x_max":639,"ha":639,"o":"m 204 387 q 99 456 99 553 q 99 604 129 650 q 160 696 213 719 q 266 741 338 741 q 444 741 502 694 q 559 647 559 578 q 559 535 534 491 q 509 447 437 397 q 591 316 591 194 q 591 108 521 45 q 451 -18 321 -18 q 190 -18 125 41 q 59 100 59 177 q 59 234 95 290 q 131 346 204 387 z m 362 438 q 434 495 434 558 q 434 601 404 625 q 373 650 326 650 q 278 650 251 627 q 224 604 224 571 q 224 541 247 514 q 270 488 362 438 z m 275 339 q 220 293 208 262 q 196 232 196 201 q 196 138 240 104 q 284 71 335 71 q 386 71 423 99 q 460 127 460 171 q 460 206 439 232 q 417 259 342 301 z"},"\\":{"x_min":0,"x_max":545,"ha":545,"o":"m 429 -145 l 6 771 l 116 771 l 539 -145 z"},"e":{"x_min":0,"x_max":586,"ha":586,"o":"m 527 18 q 424 -12 332 -12 q 244 -12 178 20 q 113 53 77 122 q 42 191 42 272 q 42 347 72 411 q 102 475 159 511 q 217 548 301 548 q 404 548 465 483 q 527 417 527 239 l 194 239 q 199 185 219 154 q 239 123 272 104 q 306 86 363 86 q 436 86 527 120 z m 192 321 l 385 321 q 385 395 360 426 q 335 458 296 458 q 254 458 227 423 q 199 388 192 321 z"},"b":{"x_min":0,"x_max":663,"ha":663,"o":"m 90 0 l 90 771 l 235 771 l 235 435 q 263 492 307 520 q 351 548 410 548 q 509 548 563 475 q 618 402 618 283 q 618 157 557 72 q 497 -12 388 -12 q 358 -12 332 -6 q 306 1 283 14 q 261 27 235 54 l 208 0 z m 235 140 q 266 106 292 94 q 319 82 347 82 q 406 82 435 139 q 464 196 464 271 q 464 347 436 391 q 409 435 358 435 q 326 435 294 413 q 262 391 235 353 z"},"%":{"x_min":0,"x_max":783,"ha":783,"o":"m 59 -18 l 627 741 l 725 741 l 157 -18 z m 184 361 q 104 361 58 409 q 12 458 12 542 q 12 626 58 675 q 104 723 184 723 q 265 723 310 674 q 355 625 355 547 q 355 457 309 409 q 263 361 184 361 z m 184 434 q 212 434 230 461 q 247 489 247 542 q 247 595 230 623 q 212 650 184 650 q 155 650 138 623 q 121 595 121 542 q 121 489 138 461 q 155 434 184 434 z m 600 0 q 520 0 474 48 q 428 96 428 181 q 428 265 474 313 q 520 361 600 361 q 680 361 726 312 q 771 264 771 186 q 771 95 725 48 q 679 0 600 0 z m 600 72 q 628 72 645 100 q 663 127 663 181 q 663 234 645 261 q 628 289 600 289 q 571 289 554 261 q 536 234 536 181 q 536 127 554 100 q 571 72 600 72 z"},"m":{"x_min":0,"x_max":970,"ha":970,"o":"m 90 0 l 90 536 l 229 536 l 229 435 q 256 484 301 516 q 345 548 410 548 q 449 548 478 536 q 506 524 529 499 q 551 473 557 435 q 597 496 638 522 q 680 548 739 548 q 804 548 845 510 q 886 472 886 386 l 886 0 l 747 0 l 747 339 q 747 399 728 417 q 708 434 685 434 q 652 434 620 411 q 588 387 557 340 l 557 0 l 418 0 l 418 339 q 418 398 400 417 q 381 435 354 435 q 323 435 291 411 q 260 388 229 340 l 229 0 z"},"#":{"x_min":0,"x_max":639,"ha":639,"o":"m 90 0 l 143 208 l 9 208 l 23 280 l 161 280 l 201 443 l 56 443 l 70 515 l 219 515 l 271 723 l 346 723 l 294 515 l 422 515 l 474 723 l 548 723 l 497 515 l 630 515 l 616 443 l 479 443 l 438 280 l 583 280 l 569 208 l 419 208 l 368 0 l 293 0 l 345 208 l 217 208 l 165 0 z m 235 280 l 363 280 l 404 443 l 276 443 z"},",":{"x_min":0,"x_max":247,"ha":247,"o":"m 105 0 l 45 0 l 45 157 l 202 157 l 202 35 q 202 -36 186 -72 q 170 -107 135 -132 q 99 -157 45 -157 l 45 -103 q 71 -103 88 -79 q 105 -56 105 -16 z"},"n":{"x_min":0,"x_max":657,"ha":657,"o":"m 90 0 l 90 536 l 235 536 l 235 435 q 274 497 321 523 q 369 548 417 548 q 481 548 527 508 q 572 467 572 379 l 572 0 l 428 0 l 428 343 q 428 387 420 403 q 412 418 398 427 q 384 435 367 435 q 337 435 305 415 q 272 395 235 337 l 235 0 z"},"h":{"x_min":0,"x_max":657,"ha":657,"o":"m 90 0 l 90 771 l 235 771 l 235 435 q 274 497 321 523 q 369 548 417 548 q 481 548 527 508 q 572 467 572 379 l 572 0 l 428 0 l 428 343 q 428 387 420 403 q 412 418 398 427 q 384 435 367 435 q 337 435 305 415 q 272 395 235 337 l 235 0 z"},"z":{"x_min":0,"x_max":591,"ha":591,"o":"m 60 0 l 60 96 l 360 446 l 74 446 l 74 536 l 531 536 l 531 446 l 231 96 l 537 96 l 537 0 z"},"B":{"x_min":0,"x_max":630,"ha":630,"o":"m 90 0 l 90 723 l 336 723 q 425 723 468 703 q 510 683 534 644 q 559 605 559 562 q 559 507 521 458 q 483 408 385 377 q 463 358 504 330 q 545 302 567 263 q 588 224 588 179 q 588 130 563 88 q 538 45 494 23 q 450 0 358 0 z m 235 422 l 268 422 q 337 422 371 456 q 406 490 406 539 q 406 564 396 583 q 385 603 360 613 q 334 624 262 624 l 235 624 z m 235 103 l 264 103 q 344 103 373 113 q 401 123 416 146 q 431 169 431 197 q 431 250 383 288 q 335 325 261 325 l 235 325 z"},"K":{"x_min":0,"x_max":710,"ha":710,"o":"m 90 0 l 90 723 l 235 723 l 235 372 l 511 723 l 636 723 l 386 398 l 697 0 l 509 0 l 235 355 l 235 0 z"},"R":{"x_min":0,"x_max":690,"ha":690,"o":"m 90 0 l 90 723 l 361 723 q 444 723 487 702 q 531 681 556 639 q 581 597 581 543 q 581 480 544 424 q 508 367 441 337 l 677 0 l 494 0 l 315 295 l 232 295 l 232 0 z m 232 395 l 267 395 q 360 395 395 435 q 430 476 430 527 q 430 571 401 597 q 373 624 284 624 l 232 624 z"},"T":{"x_min":0,"x_max":690,"ha":690,"o":"m 270 0 l 270 624 l 11 624 l 11 723 l 679 723 l 679 624 l 420 624 l 420 0 z"},"P":{"x_min":0,"x_max":613,"ha":613,"o":"m 90 0 l 90 723 l 342 723 q 452 723 497 700 q 542 677 564 636 q 587 594 587 531 q 587 410 509 347 q 431 283 300 283 l 238 283 l 238 0 z m 238 382 l 267 382 q 353 382 393 422 q 434 462 434 516 q 434 546 421 571 q 408 595 382 609 q 355 624 296 624 l 238 624 z"},"|":{"x_min":0,"x_max":247,"ha":247,"o":"m 78 -145 l 78 771 l 168 771 l 168 -145 z"},"t":{"x_min":0,"x_max":405,"ha":405,"o":"m 367 3 q 315 -12 285 -12 q 214 -12 175 8 q 136 28 117 62 q 97 97 97 164 l 97 446 l 37 446 l 37 536 l 97 536 l 97 626 l 242 643 l 242 536 l 356 536 l 356 446 l 242 446 l 242 183 q 242 125 262 104 q 283 84 322 84 q 341 84 367 91 z"},"M":{"x_min":0,"x_max":908,"ha":908,"o":"m 90 0 l 90 723 l 290 723 l 463 214 l 643 723 l 817 723 l 817 0 l 679 0 l 679 545 l 502 48 l 381 48 l 208 553 l 208 0 z"},"g":{"x_min":0,"x_max":660,"ha":660,"o":"m 94 -167 l 106 -62 q 195 -103 276 -103 q 352 -103 390 -71 q 428 -39 428 42 l 428 116 q 404 64 360 32 q 315 0 253 0 q 191 0 144 31 q 96 62 71 125 q 45 188 45 265 q 45 386 106 467 q 167 548 276 548 q 305 548 329 542 q 353 537 375 524 q 396 512 428 482 l 443 536 l 573 536 l 573 127 q 573 -35 541 -91 q 510 -147 445 -176 q 380 -205 296 -205 q 203 -205 94 -167 z m 428 200 l 428 397 q 396 433 370 445 q 343 457 318 457 q 264 457 232 407 q 199 357 199 272 q 199 199 225 157 q 251 116 300 116 q 335 116 367 137 q 399 158 428 200 z"},"j":{"x_min":0,"x_max":333,"ha":333,"o":"m -87 -182 l -87 -85 q -24 -114 21 -114 q 51 -114 75 -95 q 98 -76 98 0 l 98 536 l 243 536 l 243 10 q 243 -75 220 -117 q 197 -158 153 -182 q 109 -205 33 -205 q -16 -205 -87 -182 z m 98 626 l 98 747 l 243 747 l 243 626 z"},"i":{"x_min":0,"x_max":325,"ha":325,"o":"m 90 0 l 90 536 l 235 536 l 235 0 z m 90 626 l 90 747 l 235 747 l 235 626 z"},"y":{"x_min":0,"x_max":583,"ha":583,"o":"m 92 -193 l 214 0 l 15 536 l 170 536 l 303 178 l 461 536 l 571 536 l 240 -193 z"},"@":{"x_min":0,"x_max":844,"ha":844,"o":"m 518 22 q 433 -18 348 -18 q 257 -18 183 20 q 109 58 69 131 q 29 205 29 282 q 29 393 93 505 q 157 617 263 679 q 370 741 485 741 q 621 741 714 653 q 806 565 806 436 q 806 359 773 291 q 739 222 680 183 q 621 145 548 145 q 468 145 468 198 q 468 213 472 232 q 477 251 495 310 l 485 310 q 450 243 394 194 q 338 145 290 145 q 247 145 224 177 q 202 208 202 258 q 202 331 241 410 q 281 488 338 530 q 395 572 451 572 q 463 572 483 569 q 512 565 547 565 l 612 565 l 558 293 q 556 280 554 269 q 553 257 553 246 q 553 225 564 219 q 575 212 590 212 q 626 212 664 245 q 701 277 722 326 q 743 375 743 431 q 743 502 708 558 q 673 614 614 646 q 555 678 485 678 q 384 678 292 623 q 200 568 146 472 q 92 376 92 283 q 92 223 124 165 q 156 106 212 76 q 269 45 346 45 q 422 45 497 80 z m 494 402 l 512 493 q 473 511 443 511 q 396 511 365 482 q 334 453 312 393 q 289 333 289 280 q 289 253 300 236 q 310 219 325 220 q 341 221 364 239 q 387 258 427 306 q 466 354 494 402 z"},".":{"x_min":0,"x_max":247,"ha":247,"o":"m 45 0 l 45 157 l 202 157 l 202 0 z"},"p":{"x_min":0,"x_max":663,"ha":663,"o":"m 90 -193 l 90 536 l 235 536 l 235 435 q 263 492 307 520 q 351 548 410 548 q 509 548 563 475 q 618 402 618 283 q 618 157 557 72 q 497 -12 388 -12 q 359 -12 334 -6 q 310 0 287 13 q 265 25 235 54 l 235 -193 z m 235 140 q 266 106 292 94 q 319 82 347 82 q 406 82 435 139 q 464 196 464 271 q 464 347 436 391 q 409 435 358 435 q 326 435 294 413 q 262 391 235 353 z"},"X":{"x_min":0,"x_max":667,"ha":667,"o":"m 24 0 l 255 356 l 34 723 l 209 723 l 356 479 l 516 723 l 637 723 l 416 382 l 645 0 l 470 0 l 313 258 l 146 0 z"},"*":{"x_min":0,"x_max":466,"ha":466,"o":"m 266 577 l 392 646 l 424 546 l 282 528 q 283 535 283 538 q 283 559 266 577 z m 279 520 l 384 421 l 298 359 l 238 489 q 265 495 279 520 z m 229 489 l 167 359 l 83 421 l 187 520 q 201 495 229 489 z m 184 528 l 42 546 l 75 646 l 200 577 q 184 559 184 538 q 184 535 184 528 z m 180 723 l 286 723 l 259 582 q 246 588 233 588 q 220 588 208 582 z"},"Y":{"x_min":0,"x_max":687,"ha":687,"o":"m 262 0 l 262 303 l 20 723 l 186 723 l 362 417 l 546 723 l 665 723 l 413 304 l 413 0 z"},"c":{"x_min":0,"x_max":532,"ha":532,"o":"m 486 12 q 396 -12 318 -12 q 181 -12 111 69 q 42 150 42 269 q 42 393 115 470 q 188 548 331 548 q 396 548 481 527 l 481 423 q 393 452 340 452 q 265 452 230 395 q 195 338 195 270 q 195 217 215 171 q 235 125 271 104 q 307 83 352 83 q 417 83 486 112 z"},"!":{"x_min":0,"x_max":247,"ha":247,"o":"m 51 0 l 51 121 l 196 121 l 196 0 z m 75 205 l 51 578 l 51 723 l 196 723 l 196 578 l 172 205 z"},"/":{"x_min":0,"x_max":545,"ha":545,"o":"m 6 -145 l 429 771 l 539 771 l 116 -145 z"},"[":{"x_min":0,"x_max":355,"ha":355,"o":"m 84 -145 l 84 771 l 311 771 l 311 675 l 208 675 l 208 -48 l 311 -48 l 311 -145 z"},"6":{"x_min":0,"x_max":639,"ha":639,"o":"m 190 383 q 218 417 243 432 q 268 448 300 457 q 331 465 364 465 q 423 465 476 437 q 529 409 558 357 q 587 305 587 241 q 587 172 555 111 q 522 51 466 16 q 410 -18 326 -18 q 181 -18 110 85 q 40 189 40 345 q 40 457 76 548 q 113 640 181 691 q 250 741 367 741 q 403 741 439 737 q 474 733 549 715 l 549 609 q 450 651 373 651 q 315 651 277 622 q 238 592 214 531 q 190 470 190 383 z m 442 219 q 442 294 409 335 q 375 376 322 376 q 273 376 235 339 q 196 302 196 241 q 196 177 228 125 q 259 72 325 72 q 377 72 410 111 q 442 149 442 219 z"},"r":{"x_min":0,"x_max":455,"ha":455,"o":"m 90 0 l 90 536 l 235 536 l 235 435 q 261 487 306 518 q 351 548 406 548 q 419 548 433 545 l 433 417 q 402 428 375 428 q 333 428 297 406 q 262 384 235 340 l 235 0 z"},"2":{"x_min":0,"x_max":639,"ha":639,"o":"m 62 0 l 62 114 q 127 202 188 256 l 248 308 q 311 364 352 419 q 394 474 394 534 q 394 588 359 618 q 324 647 264 647 q 185 647 80 594 l 80 700 q 190 741 293 741 q 407 741 477 686 q 547 632 547 541 q 547 483 518 432 q 488 381 395 306 l 346 267 q 314 241 276 200 q 237 160 225 114 l 544 114 l 544 0 z"},"{":{"x_min":0,"x_max":355,"ha":355,"o":"m 33 361 l 57 361 q 92 361 108 379 q 125 396 125 425 q 125 458 115 495 l 104 540 q 93 583 93 623 q 93 690 146 730 q 198 771 297 771 l 297 675 l 286 675 q 266 675 250 658 q 233 642 233 621 q 233 609 238 580 l 245 539 q 251 505 251 469 q 251 369 155 313 q 251 256 251 157 q 251 121 245 88 l 238 46 q 233 17 233 6 q 233 -16 250 -32 q 267 -48 286 -48 l 297 -48 l 297 -145 q 199 -145 146 -104 q 93 -63 93 4 q 93 44 104 87 l 115 132 q 125 167 125 202 q 125 221 116 236 q 108 252 91 259 q 74 265 57 265 l 33 265 z"},"9":{"x_min":0,"x_max":639,"ha":639,"o":"m 448 337 q 420 303 395 287 q 371 272 340 263 q 310 254 278 254 q 218 254 165 284 q 112 314 83 367 q 53 419 53 483 q 53 550 86 611 q 118 672 175 707 q 231 741 314 741 q 461 741 531 637 q 600 533 600 383 q 600 269 560 174 q 520 80 450 31 q 380 -18 265 -18 q 197 -18 91 5 l 91 110 q 184 72 264 72 q 351 72 400 146 q 448 219 448 337 z m 198 503 q 198 431 230 387 q 263 343 318 343 q 366 343 405 381 q 443 418 443 479 q 443 544 412 597 q 381 650 315 650 q 261 650 229 611 q 198 572 198 503 z"}," ":{"x_min":0,"x_max":319,"ha":319,"o":""},"I":{"x_min":0,"x_max":332,"ha":332,"o":"m 90 0 l 90 723 l 241 723 l 241 0 z"},"H":{"x_min":0,"x_max":780,"ha":780,"o":"m 90 0 l 90 723 l 241 723 l 241 429 l 540 429 l 540 723 l 690 723 l 690 0 l 540 0 l 540 330 l 241 330 l 241 0 z"},"4":{"x_min":0,"x_max":639,"ha":639,"o":"m 374 0 l 374 193 l 36 193 l 36 301 l 368 723 l 500 723 l 500 301 l 584 301 l 584 193 l 500 193 l 500 0 z m 152 301 l 376 301 l 376 584 z"},"~":{"x_min":0,"x_max":639,"ha":639,"o":"m 54 205 q 54 298 94 341 q 134 384 187 384 q 217 384 240 375 q 263 367 307 344 l 365 313 l 413 288 q 432 280 447 280 q 469 280 484 302 q 500 324 500 363 l 500 371 l 584 371 q 584 279 547 235 q 509 190 453 190 q 425 190 403 197 q 380 205 327 232 l 267 263 l 222 287 q 206 294 192 294 q 173 294 156 275 q 139 255 139 205 z"},"D":{"x_min":0,"x_max":793,"ha":793,"o":"m 90 0 l 90 723 l 401 723 q 526 723 596 683 q 666 643 707 565 q 748 487 748 376 q 748 269 709 184 q 669 99 594 49 q 519 0 388 0 z m 241 103 l 353 103 q 441 103 488 130 q 534 157 561 222 q 588 288 588 368 q 588 444 562 503 q 536 562 489 593 q 442 624 332 624 l 241 624 z"},"^":{"x_min":0,"x_max":639,"ha":639,"o":"m 54 193 l 319 723 l 584 193 l 483 193 l 319 521 l 155 193 z"},"0":{"x_min":0,"x_max":639,"ha":639,"o":"m 319 -18 q 232 -18 169 30 q 106 79 73 169 q 39 259 39 361 q 39 463 73 553 q 106 644 169 692 q 233 741 319 741 q 405 741 468 693 q 532 645 565 554 q 599 464 599 361 q 599 262 567 173 q 535 83 472 32 q 409 -18 319 -18 z m 319 72 q 384 72 415 144 q 446 216 446 371 q 446 511 414 581 q 383 650 319 650 q 254 650 223 579 q 192 507 192 352 q 192 212 224 142 q 256 72 319 72 z"},"F":{"x_min":0,"x_max":574,"ha":574,"o":"m 90 0 l 90 723 l 545 723 l 545 624 l 241 624 l 241 404 l 491 404 l 491 304 l 241 304 l 241 0 z"},"`":{"x_min":0,"x_max":639,"ha":639,"o":"m 312 626 l 173 771 l 303 771 l 411 626 z"},"k":{"x_min":0,"x_max":633,"ha":633,"o":"m 90 0 l 90 771 l 235 771 l 235 286 l 244 286 l 435 536 l 555 536 l 379 307 l 610 0 l 435 0 l 244 268 l 235 268 l 235 0 z"},"u":{"x_min":0,"x_max":657,"ha":657,"o":"m 422 0 l 422 101 q 383 40 336 14 q 289 -12 239 -12 q 176 -12 130 29 q 84 69 84 157 l 84 536 l 229 536 l 229 193 q 229 149 237 133 q 245 118 259 110 q 273 102 290 102 q 320 102 352 121 q 384 141 422 199 l 422 536 l 566 536 l 566 0 z"},"]":{"x_min":0,"x_max":355,"ha":355,"o":"m 271 771 l 271 -145 l 45 -145 l 45 -48 l 148 -48 l 148 675 l 45 675 l 45 771 z"},"U":{"x_min":0,"x_max":736,"ha":736,"o":"m 84 723 l 235 723 l 235 280 q 235 160 276 121 q 316 82 381 82 q 445 82 483 120 q 521 159 521 269 l 521 723 l 652 723 l 652 279 q 652 153 620 99 q 589 44 529 13 q 470 -18 378 -18 q 289 -18 224 11 q 160 40 122 97 q 84 155 84 280 z"},"o":{"x_min":0,"x_max":639,"ha":639,"o":"m 319 -12 q 232 -12 170 22 q 107 56 75 122 q 42 188 42 268 q 42 348 74 414 q 106 479 169 514 q 231 548 319 548 q 407 548 469 514 q 531 479 564 414 q 596 348 596 268 q 596 188 563 122 q 531 56 469 22 q 406 -12 319 -12 z m 319 78 q 380 78 411 132 q 442 186 442 268 q 442 350 411 404 q 380 458 319 458 q 258 458 227 404 q 196 350 196 268 q 196 186 227 132 q 258 78 319 78 z"},"N":{"x_min":0,"x_max":769,"ha":769,"o":"m 90 0 l 90 723 l 223 723 l 558 229 l 558 723 l 678 723 l 678 0 l 543 0 l 211 494 l 211 0 z"},"+":{"x_min":0,"x_max":639,"ha":639,"o":"m 274 24 l 274 244 l 54 244 l 54 334 l 274 334 l 274 554 l 364 554 l 364 334 l 584 334 l 584 244 l 364 244 l 364 24 z"},"G":{"x_min":0,"x_max":746,"ha":746,"o":"m 667 17 q 571 -8 527 -13 q 482 -18 433 -18 q 230 -18 138 90 q 45 197 45 362 q 45 470 86 556 q 126 643 209 692 q 291 741 432 741 q 550 741 667 713 l 667 595 q 569 629 526 635 q 483 642 444 642 q 317 642 261 560 q 205 478 205 361 q 205 233 271 158 q 337 83 457 83 q 482 83 517 90 l 517 328 l 667 328 z"},"q":{"x_min":0,"x_max":663,"ha":663,"o":"m 428 -193 l 428 101 q 400 44 356 16 q 312 -12 252 -12 q 154 -12 100 61 q 45 134 45 253 q 45 380 106 464 q 167 548 275 548 q 304 548 329 542 q 353 536 375 523 q 398 511 428 482 l 446 536 l 573 536 l 573 -193 z m 428 396 q 397 430 371 442 q 344 455 316 455 q 257 455 228 398 q 199 342 199 266 q 199 190 226 146 q 253 101 305 101 q 337 101 369 124 q 401 146 428 184 z"},"d":{"x_min":0,"x_max":663,"ha":663,"o":"m 428 0 l 428 101 q 400 44 356 16 q 312 -12 252 -12 q 154 -12 100 61 q 45 134 45 253 q 45 380 106 464 q 167 548 275 548 q 304 548 329 542 q 353 536 375 523 q 398 511 428 482 l 428 771 l 573 771 l 573 0 z m 428 396 q 397 430 371 442 q 344 455 316 455 q 257 455 228 398 q 199 342 199 266 q 199 190 226 146 q 253 101 305 101 q 337 101 369 124 q 401 146 428 184 z"},"1":{"x_min":0,"x_max":639,"ha":639,"o":"m 250 0 l 250 639 l 153 639 l 150 711 l 395 732 l 395 0 z"},"5":{"x_min":0,"x_max":639,"ha":639,"o":"m 114 3 l 114 108 q 206 72 268 72 q 336 72 369 113 q 402 154 402 209 q 402 279 347 322 q 292 364 179 364 q 153 364 126 360 l 126 723 l 542 723 l 542 608 l 232 608 l 225 453 q 394 453 475 383 q 556 314 556 210 q 556 113 484 48 q 413 -18 271 -18 q 237 -18 209 -15 q 182 -12 114 3 z"}}}
